<mxfile host="app.diagrams.net" modified="2023-08-01T14:35:27.453Z" agent="Mozilla/5.0 (Windows NT 10.0; Win64; x64) AppleWebKit/537.36 (KHTML, like Gecko) Chrome/115.0.0.0 Safari/537.36 Edg/115.0.1901.188" version="21.6.6" etag="S3Z4SitNRI8CPw5AQYyn" type="github">
  <diagram name="PÃ¡gina-1" id="ZffQnr2BH4zgmDwUACn-">
    <mxGraphModel>
      <root>
        <mxCell id="0" />
        <mxCell id="1" parent="0" />
      </root>
    </mxGraphModel>
  </diagram>
</mxfile>
